<?xml version="1.0" encoding="UTF-8"?>
<svg id="_レイヤー_1" data-name="レイヤー_1" xmlns="http://www.w3.org/2000/svg" version="1.1" viewBox="0 0 212 212.5">
  <!-- Generator: Adobe Illustrator 30.5.1, SVG Export Plug-In . SVG Version: 2.1.4 Build 3)  -->
  <defs>
    <style>
      .st0 {
        fill: #1f1f1f;
      }
    </style>
  </defs>
  <path class="st0" d="M170.7,137.2c-2.7,1.1-5.6,2-8.7,2.7-37.8,8.2-70.9,5.1-110-37.1l4.8-4.4c37,39.9,68.3,42.9,103.8,35.1,18.1-4,26.3-17.2,29.1-23-8.2-3.4-31.8-13.4-55.4-24-60-26.9-61-31.2-61.6-33.8-1.2-5.3-2-10.4-2.7-15.2,4.9-1.4,12.3-1.9,23.4.6,1.1.3,2.3-.1,3.1-1,.8-.9,1-2.1.7-3.2-.2-.7-5.6-16-31.4-18.7C62.8,5.7,57.9,1,46,.1c-.9,0-1.9-.1-2.9-.1C29.4,0,13.3,7,6.1,26.9,2.8,35.9.9,47,.2,60.8c-2.3,48.8,15,84.6,50,103.5,3.8,2.1,7.8,3.9,11.8,5.4l10.9,16.3c2.2,3.3,6,5.3,10,5.3h0l-6.4,14.6h-18.9v6.5h23.1l9.4-21.5c3.5-1.2,5.5-5.1,4.2-8.8l-1.6-4.6c3.4.4,6.7.8,10.1,1l4.3,7.6c1.5,2.6,3.9,4.4,6.8,5l-4.3,11.4h-18.7v6.5h23.3l6.6-17.8c3.5-.5,5.8-4.1,4.8-7.6l-1.5-5.2c19.2-1.3,35.2-6.1,42.9-11.7l.8-.6,38-2.4,6.2-10.4c-7.3-3-25-10.3-41.3-16.2ZM87,30.5c-7.6-1-13.5-.5-18,.7-.5-3.3-1-6.4-1.6-9.1,10.3,1.5,16.2,5.2,19.6,8.4ZM43.3,24.8c-5.4-1.5-7.4-9.2-7.4-9.2l17.3,3.5s-4.5,7.2-9.8,5.7Z"/>
</svg>