<?xml version="1.0" encoding="UTF-8"?>
<svg width="346px" height="346px" viewBox="0 0 346 346" version="1.1" xmlns="http://www.w3.org/2000/svg" xmlns:xlink="http://www.w3.org/1999/xlink">
    <title>terraguard-ai-square-dark</title>
    <g id="Page-1" stroke="none" stroke-width="1" fill="none" fill-rule="evenodd">
        <g id="terraguard-ai-square-dark" transform="translate(26.31, 23.9994)">
            <path d="M0,98.8024475 C20.143,112.160447 39.739,123.300447 61.462,132.074447 L99.196,147.316447 C115.242,153.797447 127.785,164.703447 134.926,180.604447 C149.287,210.205447 150.485,244.775447 150.35,279.080447 C184.606,259.764447 216.579,238.896447 248.135,216.222447 C253.332,211.154447 258.292,204.876447 258.302,197.084447 L258.453,78.8164475 L181.106,36.4174475 L145.291,17.3794475 L32.246,79.0894475 L32.199,104.911447 L16.404,95.4824475 L16.625,75.2234475 C16.68,70.1664475 18.962,67.5254475 23.258,65.1744475 L136.892,2.99844746 C141.043,0.727447457 146.044,-1.36855254 150.63,1.13644746 L268.112,65.3094475 C271.683,67.2594475 274.550001,70.3864475 274.550001,74.7114475 L274.49,196.079447 C274.483,208.486447 268.638,221.111447 258.67,228.637447 C225.547,253.647447 190.749,274.967447 154.979,295.716447 C148.993,299.188447 144.039,298.786447 138.309,295.035447 C112.665,278.252447 87.483,261.480447 64.405,241.244447 C54.144,232.247447 45.217,223.132447 37.97,211.131447 C54.714,216.794447 70.829,219.277447 87.582,216.760447 C53.501,207.059447 23.474,196.515447 15.55,159.075447 C32.441,167.872447 50.001,174.785447 70.004,175.448447 C55.133,168.035447 40.765,162.494447 28.168,152.349447 C11.057,139.805447 0.614,121.008447 0,98.8024475" id="Fill-1" fill="#D5DDE6"></path>
            <path d="M153.7645,205.819947 C148.9345,188.611947 145.9845,172.615947 132.6805,158.665947 C141.4955,153.956947 152.1635,151.530947 162.2615,151.981947 C171.2955,152.384947 175.2625,158.247947 181.2805,163.210947 C186.9095,167.853947 196.5805,167.694947 200.8065,175.384947 C178.8415,171.934947 160.7785,183.520947 153.7645,205.819947" id="Fill-20" fill="#D5DDE6"></path>
            <path d="M229.6744,155.426547 C225.7164,123.942547 201.7814,99.7985475 170.2494,97.8135475 C166.2104,97.5595475 163.3964,96.2285475 162.7104,92.3115475 C162.1844,89.3125475 164.1314,84.7975475 168.1914,84.9165475 C205.7954,86.0215475 235.9914,113.780547 241.6224,150.686547 C242.2254,154.637547 241.9184,157.863547 238.0874,159.459547 C235.5064,160.534547 230.2274,159.822547 229.6744,155.426547" id="Fill-24" fill="#01AD7F"></path>
            <path d="M167.2288,124.138247 C163.5888,123.900247 161.9978,119.294247 162.8678,116.301247 C163.7878,113.137247 166.9398,111.402247 170.7088,111.842247 C193.3428,114.482247 211.7758,131.321247 214.8178,154.158247 C215.1788,156.865247 211.6688,159.553247 209.5348,159.801247 C207.3408,160.056247 203.2078,158.448247 202.7828,155.926247 C199.7358,137.840247 185.4608,125.332247 167.2288,124.138247 Z" id="Fill-28" fill="#01AD7F"></path>
            <rect id="Rectangle-2" x="-26.31" y="-23.9993525" width="346" height="346"></rect>
        </g>
    </g>
</svg>