<?xml version="1.0" encoding="UTF-8"?>
<svg width="346px" height="346px" viewBox="0 0 346 346" version="1.1" xmlns="http://www.w3.org/2000/svg" xmlns:xlink="http://www.w3.org/1999/xlink">
    <title>terraguard-ai-square-light</title>
    <defs>
        <polygon id="path-1" points="0 0 274.550001 0 274.550001 298.099 0 298.099"></polygon>
    </defs>
    <g id="Page-1" stroke="none" stroke-width="1" fill="none" fill-rule="evenodd">
        <g id="terraguard-ai-square-light" transform="translate(27, 28)">
            <g id="Group-3" transform="translate(1, 0)">
                <mask id="mask-2" fill="white">
                    <use xlink:href="#path-1"></use>
                </mask>
                <g id="Clip-2"></g>
                <path d="M0,98.8018 C20.143,112.1598 39.739,123.2998 61.462,132.0738 L99.196,147.3158 C115.242,153.7968 127.785,164.7028 134.926,180.6038 C149.287,210.2048 150.485,244.7748 150.35,279.0798 C184.606,259.7638 216.579,238.8958 248.135,216.2218 C253.332,211.1538 258.292,204.8758 258.302,197.0838 L258.453,78.8158 L181.106,36.4168 L145.291,17.3788 L32.246,79.0888 L32.199,104.9108 L16.404,95.4818 L16.625,75.2228 C16.68,70.1658 18.962,67.5248 23.258,65.1738 L136.892,2.9978 C141.043,0.7268 146.044,-1.3692 150.63,1.1358 L268.112,65.3088 C271.683,67.2588 274.550001,70.3858 274.550001,74.7108 L274.49,196.0788 C274.483,208.4858 268.638,221.1108 258.67,228.6368 C225.547,253.6468 190.749,274.9668 154.979,295.7158 C148.993,299.1878 144.039,298.7858 138.309,295.0348 C112.665,278.2518 87.483,261.4798 64.405,241.2438 C54.144,232.2468 45.217,223.1318 37.97,211.1308 C54.714,216.7938 70.829,219.2768 87.582,216.7598 C53.501,207.0588 23.474,196.5148 15.55,159.0748 C32.441,167.8718 50.001,174.7848 70.004,175.4478 C55.133,168.0348 40.765,162.4938 28.168,152.3488 C11.057,139.8048 0.614,121.0078 0,98.8018" id="Fill-1" fill="#06203C" mask="url(#mask-2)"></path>
            </g>
            <path d="M154.7645,205.8193 C149.9345,188.6113 146.9845,172.6153 133.6805,158.6653 C142.4955,153.9563 153.1635,151.5303 163.2615,151.9813 C172.2955,152.3843 176.2625,158.2473 182.2805,163.2103 C187.9095,167.8533 197.5805,167.6943 201.8065,175.3843 C179.8415,171.9343 161.7785,183.5203 154.7645,205.8193" id="Fill-20" fill="#06203C"></path>
            <path d="M230.6744,155.4259 C226.7164,123.9419 202.7814,99.7979 171.2494,97.8129 C167.2104,97.5589 164.3964,96.2279 163.7104,92.3109 C163.1844,89.3119 165.1314,84.7969 169.1914,84.9159 C206.7954,86.0209 236.9914,113.7799 242.6224,150.6859 C243.2254,154.6369 242.9184,157.8629 239.0874,159.4589 C236.5064,160.5339 231.2274,159.8219 230.6744,155.4259" id="Fill-24" fill="#01AD7F"></path>
            <path d="M168.2288,124.1376 C164.5888,123.8996 162.9978,119.2936 163.8678,116.3006 C164.7878,113.1366 167.9398,111.4016 171.7088,111.8416 C194.3428,114.4816 212.7758,131.3206 215.8178,154.1576 C216.1788,156.8646 212.6688,159.5526 210.5348,159.8006 C208.3408,160.0556 204.2078,158.4476 203.7828,155.9256 C200.7358,137.8396 186.4608,125.3316 168.2288,124.1376 Z" id="Fill-28" fill="#01AD7F"></path>
            <rect id="Rectangle-2" x="-27" y="-28" width="346" height="346"></rect>
        </g>
    </g>
</svg>