<?xml version="1.0" encoding="UTF-8"?>
<svg width="1060px" height="299px" viewBox="0 0 1060 299" version="1.1" xmlns="http://www.w3.org/2000/svg" xmlns:xlink="http://www.w3.org/1999/xlink">
    <title>terraguard-ai-logo-dark</title>
    <defs>
        <path d="M274.550002,298.099 L0,298.099 L0,0 L274.550001,0 Z M678.5029,137.0745 L664.9889,146.7585 C659.5729,138.4485 650.9909,134.4885 641.2989,134.5145 C626.9019,134.5525 615.4139,143.8165 612.5989,157.9615 C610.4509,168.7545 612.7629,180.6105 621.0319,188.5065 C631.7029,198.6955 648.6859,198.8865 660.0439,190.3305 C664.0169,186.1895 666.8689,183.3265 665.9249,175.6375 L640.8769,175.5165 L640.9049,161.3705 L683.0959,161.3445 L683.0789,174.2825 C683.0599,188.9245 674.8199,201.3635 661.4249,207.4435 C649.8639,212.6925 636.6079,213.1155 624.3359,208.9005 C605.6739,202.4895 594.6639,184.7555 594.691847,165.2795 C594.7299,139.1895 614.5519,119.2535 640.5039,118.8935 C655.5419,118.6845 669.5309,124.6005 678.5029,137.0745 Z M750.5057,147.2074 L750.5647,209.7754 L734.8407,209.7964 L735.0877,201.8804 C729.8187,208.5174 723.7117,211.6604 715.1977,211.656404 C703.8247,211.6514 692.4747,203.6414 692.3477,191.2414 L691.8947,147.2504 L707.5617,147.2754 L707.8127,186.1244 C707.8547,192.6144 713.1007,196.6224 718.7787,197.0584 C726.9757,197.6884 734.4507,192.0134 734.4997,183.1514 L734.6967,147.1854 Z M926.9884,118.7808 L927.0284,209.9258 L912.0544,209.8368 L911.1914,202.9808 C906.3794,207.9548 901.4304,210.8488 894.6264,211.4678 C883.2514,212.5018 873.0454,207.1158 867.4394,196.9718 C856.6134,177.3818 865.4744,150.8108 885.1644,146.4438 C895.2004,144.2188 903.7994,146.6428 911.2584,153.7978 L911.3204,118.7728 Z M805.72,150.8923 C810.517,154.3653 814.556,160.1533 814.583,166.5223 L814.765,210.0773 L800.305,209.8003 L799.948,202.7833 C794.05,209.5903 785.953,212.3213 776.668,211.3533 C766.501,210.2933 759.568,203.5533 758.612,194.5863 C757.61,185.1883 762.712,177.2393 772.194,174.0423 C780.443,171.2613 789.261,171.6263 798.643,172.0273 C800.618,165.6503 796.412,160.2983 790.046,159.2193 C782.992,158.0243 776.189,161.0983 774.059,167.8293 L761.013,161.0153 C768.458,144.5793 792.582,141.3793 805.72,150.8923 Z M568.0892,146.4681 C579.4942,148.4401 587.1512,157.6611 587.133232,169.2091 L587.0692,210.0431 L572.5302,209.8881 L572.0872,202.8451 C566.1372,209.6631 558.1352,212.4041 548.7732,211.2671 C538.2232,209.9861 531.2432,202.2451 531.0262,192.7601 C530.8052,183.0581 537.1122,175.4911 547.2742,173.1231 C554.5512,171.4271 562.3992,171.8391 570.7672,171.9331 C572.0322,170.1461 571.5092,165.8491 569.9292,163.4361 C568.6722,161.5161 565.2192,159.7271 562.2472,159.2391 C555.1932,158.0801 549.3682,161.0901 546.7102,167.6981 L533.5962,161.2401 C537.3542,153.1321 544.7202,147.2611 554.1262,146.1281 Z M425.406,149.082 C437.73,155.473 442.813,168.603 440.889,182.715 L395.553,182.747 C395.208,190.464 401.31,196.626 409.234,197.633 C416.172,198.515 422.655,196.452 426.363,189.238 L439.691,196.114 C433.258,207.508 421.337,212.144 408.955,211.434 C392.235,210.475 380.156,198.034 379.359,181.184 C378.801,169.376 382.792,157.592 392.928,150.834 C402.414,144.509 415.295,143.84 425.406,149.082 Z M1059.31,210.095 L1042.783,210.095 L1042.783,121.071 L1059.31,121.071 Z M1036.5198,209.7847 L1018.9238,210.0117 L1012.0878,189.7967 L977.5288,189.7187 L970.0398,210.0447 L952.9018,209.7127 L985.5618,121.2767 L1004.1948,121.2497 Z M485.8367,146.2203 L485.6987,161.9823 C480.2237,161.0813 475.4587,161.2453 471.3797,163.7343 C467.7447,165.9523 464.7097,171.1393 464.6977,176.1433 L464.6147,209.8333 L448.9307,209.8913 L448.9057,147.2463 L463.8997,147.1943 L464.3807,155.7913 C469.3237,147.9983 477.2557,144.5973 485.8367,146.2203 Z M389.8199,135.7657 L363.2579,135.8947 L363.2569,209.7487 L346.7979,209.8567 L346.8339,135.8357 L320.7109,135.8117 L320.7179,121.0247 L389.8159,120.9377 Z M861.2442,146.2379 L861.2522,162.1479 C855.7292,161.2549 850.9312,161.1119 846.1502,164.3539 C843.1792,166.3699 840.2662,171.5149 840.2552,176.3249 L840.1822,209.7239 L824.3052,209.8549 L824.3292,147.2339 L839.4702,147.3099 L840.3472,154.7879 C845.8312,147.8789 852.6472,144.6229 861.2442,146.2379 Z M528.7529,146.2117 L528.6339,161.9907 C522.8459,161.0147 517.7289,161.1447 513.2479,164.4417 C510.0169,166.8197 507.5219,172.1527 507.5239,177.1397 L507.5389,209.7177 L491.6719,209.8207 L491.7029,147.2847 L506.8919,147.2047 L507.4249,155.7827 C512.2529,148.4247 519.4589,144.5487 528.7529,146.2117 Z M780.314,183.9493 C776.176,184.2093 773.823,189.0413 774.415,192.5273 C774.987,195.8993 777.92,198.4953 781.802,199.0533 C786.459,199.7223 791.652,198.2873 794.965,195.4683 C798.452,192.5023 799.752,188.1973 799.183,182.7633 Z M553.1282,183.7091 C548.4902,183.9591 546.0492,188.9061 546.7662,192.7311 C547.4482,196.3661 550.8172,198.6611 555.0372,198.9601 C559.4442,199.2731 564.3972,198.1441 567.1782,195.5851 C570.7822,192.2711 572.1292,188.1621 571.5082,182.7171 Z M890.4114,160.5708 C883.1814,162.5308 879.0364,169.3568 878.5374,177.1398 C877.8734,187.5158 883.5834,196.5028 893.8884,197.0538 C902.838713,197.532862 910.55592,191.802452 911.772351,181.690969 L911.927399,179.6108 C912.0474,175.6898 911.0224,171.2218 909.3494,168.3018 C905.3224,161.2778 897.6574,158.6078 890.4114,160.5708 Z M982.6418,174.9087 L1006.9788,174.6847 L994.7688,140.7417 Z M395.524,171.648 L425.157,171.544 C424.931,163.944 420.26,160.214 414.274,158.925 C405.34,156.983 396.8,161.923 395.524,171.648 Z" id="path-1"></path>
        <polygon id="path-2" points="0 0 274.550001 0 274.550001 298.099 0 298.099"></polygon>
        <polygon id="path-4" points="0 0 274.550001 0 274.550001 298.099 0 298.099"></polygon>
    </defs>
    <g id="terraguard-ai-logo-dark" stroke="none" fill="none" transform="translate(0.31, 0)" xlink:href="#path-1" fill-rule="evenodd">
        <g id="Group-3" stroke-width="1">
            <mask id="mask-3" fill="white">
                <use xlink:href="#path-2"></use>
            </mask>
            <g id="Clip-2"></g>
            <path d="M0,98.8018 C20.143,112.1598 39.739,123.2998 61.462,132.0738 L99.196,147.3158 C115.242,153.7968 127.785,164.7028 134.926,180.6038 C149.287,210.2048 150.485,244.7748 150.35,279.0798 C184.606,259.7638 216.579,238.8958 248.135,216.2218 C253.332,211.1538 258.292,204.8758 258.302,197.0838 L258.453,78.8158 L181.106,36.4168 L145.291,17.3788 L32.246,79.0888 L32.199,104.9108 L16.404,95.4818 L16.625,75.2228 C16.68,70.1658 18.962,67.5248 23.258,65.1738 L136.892,2.9978 C141.043,0.7268 146.044,-1.3692 150.63,1.1358 L268.112,65.3088 C271.683,67.2588 274.550001,70.3858 274.550001,74.7108 L274.49,196.0788 C274.483,208.4858 268.638,221.1108 258.67,228.6368 C225.547,253.6468 190.749,274.9668 154.979,295.7158 C148.993,299.1878 144.039,298.7858 138.309,295.0348 C112.665,278.2518 87.483,261.4798 64.405,241.2438 C54.144,232.2468 45.217,223.1318 37.97,211.1308 C54.714,216.7938 70.829,219.2768 87.582,216.7598 C53.501,207.0588 23.474,196.5148 15.55,159.0748 C32.441,167.8718 50.001,174.7848 70.004,175.4478 C55.133,168.0348 40.765,162.4938 28.168,152.3488 C11.057,139.8048 0.614,121.0078 0,98.8018" id="Fill-1" fill="#D5DDE6" mask="url(#mask-3)"></path>
        </g>
        <g id="Group-3" stroke-width="1">
            <mask id="mask-5" fill="white">
                <use xlink:href="#path-4"></use>
            </mask>
            <g id="Clip-2"></g>
            <path d="M0,98.8018 C20.143,112.1598 39.739,123.2998 61.462,132.0738 L99.196,147.3158 C115.242,153.7968 127.785,164.7028 134.926,180.6038 C149.287,210.2048 150.485,244.7748 150.35,279.0798 C184.606,259.7638 216.579,238.8958 248.135,216.2218 C253.332,211.1538 258.292,204.8758 258.302,197.0838 L258.453,78.8158 L181.106,36.4168 L145.291,17.3788 L32.246,79.0888 L32.199,104.9108 L16.404,95.4818 L16.625,75.2228 C16.68,70.1658 18.962,67.5248 23.258,65.1738 L136.892,2.9978 C141.043,0.7268 146.044,-1.3692 150.63,1.1358 L268.112,65.3088 C271.683,67.2588 274.550001,70.3858 274.550001,74.7108 L274.49,196.0788 C274.483,208.4858 268.638,221.1108 258.67,228.6368 C225.547,253.6468 190.749,274.9668 154.979,295.7158 C148.993,299.1878 144.039,298.7858 138.309,295.0348 C112.665,278.2518 87.483,261.4798 64.405,241.2438 C54.144,232.2468 45.217,223.1318 37.97,211.1308 C54.714,216.7938 70.829,219.2768 87.582,216.7598 C53.501,207.0588 23.474,196.5148 15.55,159.0748 C32.441,167.8718 50.001,174.7848 70.004,175.4478 C55.133,168.0348 40.765,162.4938 28.168,152.3488 C11.057,139.8048 0.614,121.0078 0,98.8018" id="Fill-1" fill="#D5DDE6" mask="url(#mask-5)"></path>
        </g>
        <path d="M665.9249,175.6375 L640.8769,175.5165 L640.9049,161.3705 L683.0959,161.3445 L683.0789,174.2825 C683.0599,188.9245 674.8199,201.3635 661.4249,207.4435 C649.8639,212.6925 636.6079,213.1155 624.3359,208.9005 C605.6739,202.4895 594.6639,184.7555 594.691847,165.2795 C594.7299,139.1895 614.5519,119.2535 640.5039,118.8935 C655.5419,118.6845 669.5309,124.6005 678.5029,137.0745 L664.9889,146.7585 C659.5729,138.4485 650.9909,134.4885 641.2989,134.5145 C626.9019,134.5525 615.4139,143.8165 612.5989,157.9615 C610.4509,168.7545 612.7629,180.6105 621.0319,188.5065 C631.7029,198.6955 648.6859,198.8865 660.0439,190.3305 C664.0169,186.1895 666.8689,183.3265 665.9249,175.6375" id="Fill-4" fill="#D5DDE6"></path>
        <path d="M1006.9788,174.6847 L994.7688,140.7417 L982.6418,174.9087 L1006.9788,174.6847 Z M1012.0878,189.7967 L977.5288,189.7187 L970.0398,210.0447 L952.9018,209.7127 L985.5618,121.2767 L1004.1948,121.2497 L1036.5198,209.7847 L1018.9238,210.0117 L1012.0878,189.7967 Z" id="Fill-6" fill="#01AD7F"></path>
        <path d="M911.9274,179.6108 C912.0474,175.6898 911.0224,171.2218 909.3494,168.3018 C905.3224,161.2778 897.6574,158.6078 890.4114,160.5708 C883.1814,162.5308 879.0364,169.3568 878.5374,177.1398 C877.8734,187.5158 883.5834,196.5028 893.8884,197.0538 C903.4354,197.5648 911.5794,191.0108 911.9274,179.6108 L911.9274,179.6108 Z M911.1914,202.9808 C906.3794,207.9548 901.4304,210.8488 894.6264,211.4678 C883.2514,212.5018 873.0454,207.1158 867.4394,196.9718 C856.6134,177.3818 865.4744,150.8108 885.1644,146.4438 C895.2004,144.2188 903.7994,146.6428 911.2584,153.7978 L911.3204,118.7728 L926.9884,118.7808 L927.0284,209.9258 L912.0544,209.8368 L911.1914,202.9808 Z" id="Fill-8" fill="#D5DDE6"></path>
        <path d="M425.157,171.544 C424.931,163.944 420.26,160.214 414.274,158.925 C405.34,156.983 396.8,161.923 395.524,171.648 L425.157,171.544 Z M426.363,189.238 L439.691,196.114 C433.258,207.508 421.337,212.144 408.955,211.434 C392.235,210.475 380.156,198.034 379.359,181.184 C378.801,169.376 382.792,157.592 392.928,150.834 C402.414,144.509 415.295,143.84 425.406,149.082 C437.73,155.473 442.813,168.603 440.889,182.715 L395.553,182.747 C395.208,190.464 401.31,196.626 409.234,197.633 C416.172,198.515 422.655,196.452 426.363,189.238 L426.363,189.238 Z" id="Fill-10" fill="#D5DDE6"></path>
        <path d="M799.183,182.7633 L780.314,183.9493 C776.176,184.2093 773.823,189.0413 774.415,192.5273 C774.987,195.8993 777.92,198.4953 781.802,199.0533 C786.459,199.7223 791.652,198.2873 794.965,195.4683 C798.452,192.5023 799.752,188.1973 799.183,182.7633 M776.668,211.3533 C766.501,210.2933 759.568,203.5533 758.612,194.5863 C757.61,185.1883 762.712,177.2393 772.194,174.0423 C780.443,171.2613 789.261,171.6263 798.643,172.0273 C800.618,165.6503 796.412,160.2983 790.046,159.2193 C782.992,158.0243 776.189,161.0983 774.059,167.8293 L761.013,161.0153 C768.458,144.5793 792.582,141.3793 805.72,150.8923 C810.517,154.3653 814.556,160.1533 814.583,166.5223 L814.765,210.0773 L800.305,209.8003 L799.948,202.7833 C794.05,209.5903 785.953,212.3213 776.668,211.3533" id="Fill-12" fill="#D5DDE6"></path>
        <path d="M571.5082,182.7171 L553.1282,183.7091 C548.4902,183.9591 546.0492,188.9061 546.7662,192.7311 C547.4482,196.3661 550.8172,198.6611 555.0372,198.9601 C559.4442,199.2731 564.3972,198.1441 567.1782,195.5851 C570.7822,192.2711 572.1292,188.1621 571.5082,182.7171 M548.7732,211.2671 C538.2232,209.9861 531.2432,202.2451 531.0262,192.7601 C530.8052,183.0581 537.1122,175.4911 547.2742,173.1231 C554.5512,171.4271 562.3992,171.8391 570.7672,171.9331 C572.0322,170.1461 571.5092,165.8491 569.9292,163.4361 C568.6722,161.5161 565.2192,159.7271 562.2472,159.2391 C555.1932,158.0801 549.3682,161.0901 546.7102,167.6981 L533.5962,161.2401 C537.3542,153.1321 544.7202,147.2611 554.1262,146.1281 L568.0892,146.4681 C579.4942,148.4401 587.1512,157.6611 587.133232,169.2091 L587.0692,210.0431 L572.5302,209.8881 L572.0872,202.8451 C566.1372,209.6631 558.1352,212.4041 548.7732,211.2671" id="Fill-14" fill="#D5DDE6"></path>
        <path d="M750.5057,147.2074 L750.5647,209.7754 L734.8407,209.7964 L735.0877,201.8804 C729.8187,208.5174 723.7117,211.6604 715.1977,211.656404 C703.8247,211.6514 692.4747,203.6414 692.3477,191.2414 L691.8947,147.2504 L707.5617,147.2754 L707.8127,186.1244 C707.8547,192.6144 713.1007,196.6224 718.7787,197.0584 C726.9757,197.6884 734.4507,192.0134 734.4997,183.1514 L734.6967,147.1854 L750.5057,147.2074 Z" id="Fill-16" fill="#D5DDE6"></path>
        <polygon id="Fill-18" fill="#D5DDE6" points="363.2569 209.7487 346.7979 209.8567 346.8339 135.8357 320.7109 135.8117 320.7179 121.0247 389.8159 120.9377 389.8199 135.7657 363.2579 135.8947"></polygon>
        <path d="M153.7645,205.8193 C148.9345,188.6113 145.9845,172.6153 132.6805,158.6653 C141.4955,153.9563 152.1635,151.5303 162.2615,151.9813 C171.2955,152.3843 175.2625,158.2473 181.2805,163.2103 C186.9095,167.8533 196.5805,167.6943 200.8065,175.3843 C178.8415,171.9343 160.7785,183.5203 153.7645,205.8193" id="Fill-20" fill="#D5DDE6"></path>
        <polygon id="Fill-22" fill="#01AD7F" points="1042.783 210.095 1059.311 210.095 1059.311 121.071 1042.783 121.071"></polygon>
        <path d="M229.6744,155.4259 C225.7164,123.9419 201.7814,99.7979 170.2494,97.8129 C166.2104,97.5589 163.3964,96.2279 162.7104,92.3109 C162.1844,89.3119 164.1314,84.7969 168.1914,84.9159 C205.7954,86.0209 235.9914,113.7799 241.6224,150.6859 C242.2254,154.6369 241.9184,157.8629 238.0874,159.4589 C235.5064,160.5339 230.2274,159.8219 229.6744,155.4259" id="Fill-24" fill="#01AD7F"></path>
        <path d="M464.6147,209.8333 L448.9307,209.8913 L448.9057,147.2463 L463.8997,147.1943 L464.3807,155.7913 C469.3237,147.9983 477.2557,144.5973 485.8367,146.2203 L485.6987,161.9823 C480.2237,161.0813 475.4587,161.2453 471.3797,163.7343 C467.7447,165.9523 464.7097,171.1393 464.6977,176.1433 L464.6147,209.8333 Z" id="Fill-25" fill="#D5DDE6"></path>
        <path d="M507.5389,209.7177 L491.6719,209.8207 L491.7029,147.2847 L506.8919,147.2047 L507.4249,155.7827 C512.2529,148.4247 519.4589,144.5487 528.7529,146.2117 L528.6339,161.9907 C522.8459,161.0147 517.7289,161.1447 513.2479,164.4417 C510.0169,166.8197 507.5219,172.1527 507.5239,177.1397 L507.5389,209.7177 Z" id="Fill-26" fill="#D5DDE6"></path>
        <path d="M840.1822,209.7239 L824.3052,209.8549 L824.3292,147.2339 L839.4702,147.3099 L840.3472,154.7879 C845.8312,147.8789 852.6472,144.6229 861.2442,146.2379 L861.2522,162.1479 C855.7292,161.2549 850.9312,161.1119 846.1502,164.3539 C843.1792,166.3699 840.2662,171.5149 840.2552,176.3249 L840.1822,209.7239 Z" id="Fill-27" fill="#D5DDE6"></path>
        <path d="M167.2288,124.1376 C163.5888,123.8996 161.9978,119.2936 162.8678,116.3006 C163.7878,113.1366 166.9398,111.4016 170.7088,111.8416 C193.3428,114.4816 211.7758,131.3206 214.8178,154.1576 C215.1788,156.8646 211.6688,159.5526 209.5348,159.8006 C207.3408,160.0556 203.2078,158.4476 202.7828,155.9256 C199.7358,137.8396 185.4608,125.3316 167.2288,124.1376 Z" id="Fill-28" fill="#01AD7F"></path>
    </g>
</svg>